<mxfile host="app.diagrams.net" modified="2023-06-06T19:51:12.310Z" agent="Mozilla/5.0 (Macintosh; Intel Mac OS X 10_15_7) AppleWebKit/537.36 (KHTML, like Gecko) Chrome/110.0.0.0 Safari/537.36" etag="oW54gB7ENX3Sjk-GgSqm" version="21.3.7" type="github">
  <diagram name="Happy Path" id="OrkhdotAC_ehz5unJKXv">
    <mxGraphModel dx="1731" dy="708" grid="1" gridSize="10" guides="1" tooltips="1" connect="1" arrows="1" fold="1" page="1" pageScale="1" pageWidth="2000" pageHeight="2000" math="0" shadow="0">
      <root>
        <mxCell id="0" />
        <mxCell id="1" parent="0" />
        <object placeholders="1" c4Name="BFF" c4Type="Container" c4Technology="NodeJS" c4Description="" label="&lt;font style=&quot;font-size: 25px;&quot;&gt;&lt;b style=&quot;font-size: 25px;&quot;&gt;%c4Name%&lt;/b&gt;&lt;/font&gt;&lt;div style=&quot;font-size: 25px;&quot;&gt;[%c4Type%: %c4Technology%]&lt;/div&gt;&lt;br style=&quot;font-size: 25px;&quot;&gt;&lt;div style=&quot;font-size: 25px;&quot;&gt;&lt;font style=&quot;font-size: 25px;&quot;&gt;&lt;font color=&quot;#E6E6E6&quot; style=&quot;font-size: 25px;&quot;&gt;%c4Description%&lt;/font&gt;&lt;/font&gt;&lt;/div&gt;" id="v7ca0MWnmdAflECbKoVO-9">
          <mxCell style="rounded=1;whiteSpace=wrap;html=1;fontSize=25;labelBackgroundColor=none;fillColor=#6a00ff;fontColor=#ffffff;align=center;arcSize=8;strokeColor=#3700CC;metaEdit=1;resizable=1;points=[[0.25,0,0],[0.5,0,0],[0.75,0,0],[1,0.25,0],[1,0.5,0],[1,0.75,0],[0.75,1,0],[0.5,1,0],[0.25,1,0],[0,0.75,0],[0,0.5,0],[0,0.25,0]];imageWidth=40;imageHeight=30;" vertex="1" parent="1">
            <mxGeometry x="580" y="242.8" width="310" height="175" as="geometry" />
          </mxCell>
        </object>
        <object label="&lt;p style=&quot;line-height: 130%;&quot;&gt;&lt;font style=&quot;font-size: 21px;&quot;&gt;Kafka Confluent&lt;/font&gt;&lt;/p&gt;" id="v7ca0MWnmdAflECbKoVO-10">
          <mxCell style="shape=mxgraph.cisco.misc.streamer;html=1;pointerEvents=1;dashed=0;fillColor=#6a00ff;strokeColor=#3700CC;strokeWidth=2;verticalLabelPosition=bottom;verticalAlign=top;align=center;outlineConnect=0;fontColor=#ffffff;" vertex="1" parent="1">
            <mxGeometry x="1530" y="445" width="210" height="115" as="geometry" />
          </mxCell>
        </object>
        <mxCell id="v7ca0MWnmdAflECbKoVO-12" value="DataBricks" style="image;sketch=0;aspect=fixed;html=1;points=[];align=center;fontSize=12;image=img/lib/mscae/Databricks.svg;" vertex="1" parent="1">
          <mxGeometry x="1660" y="70" width="125" height="120" as="geometry" />
        </mxCell>
        <mxCell id="v7ca0MWnmdAflECbKoVO-15" value="" style="image;sketch=0;aspect=fixed;html=1;points=[];align=center;fontSize=12;image=img/lib/mscae/Azure_Database_for_PostgreSQL_servers.svg;" vertex="1" parent="1">
          <mxGeometry x="681" y="560" width="38" height="50" as="geometry" />
        </mxCell>
        <mxCell id="v7ca0MWnmdAflECbKoVO-18" value="Web App" style="image;sketch=0;aspect=fixed;html=1;points=[];align=center;fontSize=12;image=img/lib/mscae/App_Service_IPAddress.svg;" vertex="1" parent="1">
          <mxGeometry x="33.5" y="70" width="119.05" height="100" as="geometry" />
        </mxCell>
        <mxCell id="v7ca0MWnmdAflECbKoVO-19" value="DataLake&lt;br&gt;" style="image;sketch=0;aspect=fixed;html=1;points=[];align=center;fontSize=12;image=img/lib/mscae/Data_Lake_Storage.svg;" vertex="1" parent="1">
          <mxGeometry x="1680" y="220" width="130" height="119.6" as="geometry" />
        </mxCell>
        <object placeholders="1" c4Type="Payment" c4Container="Container" c4Technology="NestJS" c4Description="" label="&lt;font style=&quot;font-size: 16px&quot;&gt;&lt;b&gt;%c4Type%&lt;/b&gt;&lt;/font&gt;&lt;div&gt;[%c4Container%:&amp;nbsp;%c4Technology%]&lt;/div&gt;&lt;br&gt;&lt;div&gt;&lt;font style=&quot;font-size: 11px&quot;&gt;&lt;font color=&quot;#E6E6E6&quot;&gt;%c4Description%&lt;/font&gt;&lt;/div&gt;" id="v7ca0MWnmdAflECbKoVO-21">
          <mxCell style="shape=hexagon;size=50;perimeter=hexagonPerimeter2;whiteSpace=wrap;html=1;fixedSize=1;rounded=1;labelBackgroundColor=none;fillColor=#6a00ff;fontSize=12;fontColor=#ffffff;align=center;strokeColor=#3700CC;metaEdit=1;points=[[0.5,0,0],[1,0.25,0],[1,0.5,0],[1,0.75,0],[0.5,1,0],[0,0.75,0],[0,0.5,0],[0,0.25,0]];resizable=1;" vertex="1" parent="1">
            <mxGeometry x="1260" y="236.70000000000002" width="210" height="177.2" as="geometry" />
          </mxCell>
        </object>
        <mxCell id="v7ca0MWnmdAflECbKoVO-22" value="Mobile App" style="image;sketch=0;aspect=fixed;html=1;points=[];align=center;fontSize=12;image=img/lib/mscae/App_Service_Mobile_App.svg;" vertex="1" parent="1">
          <mxGeometry x="36.93" y="242.8" width="112.2" height="165" as="geometry" />
        </mxCell>
        <object placeholders="1" c4Type="Transactions" c4Container="Container" c4Technology="NestJS" c4Description="" label="&lt;font style=&quot;font-size: 16px&quot;&gt;&lt;b&gt;%c4Type%&lt;/b&gt;&lt;/font&gt;&lt;div&gt;[%c4Container%:&amp;nbsp;%c4Technology%]&lt;/div&gt;&lt;br&gt;&lt;div&gt;&lt;font style=&quot;font-size: 11px&quot;&gt;&lt;font color=&quot;#E6E6E6&quot;&gt;%c4Description%&lt;/font&gt;&lt;/div&gt;" id="v7ca0MWnmdAflECbKoVO-23">
          <mxCell style="shape=hexagon;size=50;perimeter=hexagonPerimeter2;whiteSpace=wrap;html=1;fixedSize=1;rounded=1;labelBackgroundColor=none;fillColor=#6a00ff;fontSize=12;fontColor=#ffffff;align=center;strokeColor=#3700CC;metaEdit=1;points=[[0.5,0,0],[1,0.25,0],[1,0.5,0],[1,0.75,0],[0.5,1,0],[0,0.75,0],[0,0.5,0],[0,0.25,0]];resizable=0;" vertex="1" parent="1">
            <mxGeometry x="880" y="510" width="200" height="170" as="geometry" />
          </mxCell>
        </object>
        <mxCell id="v7ca0MWnmdAflECbKoVO-25" value="External Partner" style="shadow=0;dashed=0;html=1;strokeColor=#006EAF;fillColor=#1ba1e2;labelPosition=center;verticalLabelPosition=bottom;verticalAlign=top;align=center;outlineConnect=0;shape=mxgraph.veeam.company_administrator;fontColor=#ffffff;" vertex="1" parent="1">
          <mxGeometry x="33.5" y="490" width="110" height="120" as="geometry" />
        </mxCell>
        <mxCell id="v7ca0MWnmdAflECbKoVO-29" value="" style="html=1;labelBackgroundColor=#ffffff;endArrow=classic;endFill=1;endSize=6;jettySize=auto;orthogonalLoop=1;strokeWidth=1;fontSize=14;rounded=0;exitX=0.979;exitY=0.54;exitDx=0;exitDy=0;exitPerimeter=0;entryX=0.006;entryY=0.441;entryDx=0;entryDy=0;entryPerimeter=0;" edge="1" parent="1" source="v7ca0MWnmdAflECbKoVO-18" target="v7ca0MWnmdAflECbKoVO-9">
          <mxGeometry width="60" height="60" relative="1" as="geometry">
            <mxPoint x="170" y="130" as="sourcePoint" />
            <mxPoint x="450" y="320" as="targetPoint" />
            <Array as="points">
              <mxPoint x="200" y="320" />
            </Array>
          </mxGeometry>
        </mxCell>
        <mxCell id="v7ca0MWnmdAflECbKoVO-30" value="" style="html=1;labelBackgroundColor=#ffffff;endArrow=classic;endFill=1;endSize=6;jettySize=auto;orthogonalLoop=1;strokeWidth=1;fontSize=14;rounded=0;exitX=0.972;exitY=0.589;exitDx=0;exitDy=0;exitPerimeter=0;entryX=0;entryY=0.555;entryDx=0;entryDy=0;entryPerimeter=0;" edge="1" parent="1" source="v7ca0MWnmdAflECbKoVO-22" target="v7ca0MWnmdAflECbKoVO-9">
          <mxGeometry width="60" height="60" relative="1" as="geometry">
            <mxPoint x="650" y="350" as="sourcePoint" />
            <mxPoint x="550" y="339" as="targetPoint" />
          </mxGeometry>
        </mxCell>
        <mxCell id="v7ca0MWnmdAflECbKoVO-31" value="" style="html=1;labelBackgroundColor=#ffffff;endArrow=classic;endFill=1;endSize=6;jettySize=auto;orthogonalLoop=1;strokeWidth=1;fontSize=14;rounded=0;entryX=-0.01;entryY=0.675;entryDx=0;entryDy=0;entryPerimeter=0;" edge="1" parent="1" source="v7ca0MWnmdAflECbKoVO-25" target="v7ca0MWnmdAflECbKoVO-9">
          <mxGeometry width="60" height="60" relative="1" as="geometry">
            <mxPoint x="650" y="350" as="sourcePoint" />
            <mxPoint x="550" y="360" as="targetPoint" />
            <Array as="points">
              <mxPoint x="200" y="360" />
            </Array>
          </mxGeometry>
        </mxCell>
        <mxCell id="v7ca0MWnmdAflECbKoVO-32" value="x-correlation-id:[uuid-v4]" style="text;html=1;strokeColor=none;fillColor=none;align=center;verticalAlign=middle;whiteSpace=wrap;rounded=0;fontSize=20;" vertex="1" parent="1">
          <mxGeometry x="210" y="277.5" width="220" height="30" as="geometry" />
        </mxCell>
        <mxCell id="v7ca0MWnmdAflECbKoVO-34" value="" style="editableCssRules=.*;html=1;shape=image;verticalLabelPosition=bottom;labelBackgroundColor=#ffffff;verticalAlign=top;aspect=fixed;imageAspect=0;image=data:image/svg+xml,PHN2ZyB4bWxucz0iaHR0cDovL3d3dy53My5vcmcvMjAwMC9zdmciIHhtbG5zOnY9Imh0dHBzOi8vdmVjdGEuaW8vbmFubyIgd2lkdGg9IjIwIiBoZWlnaHQ9IjE5IiB2aWV3Qm94PSIwIDAgMjAgMTkiPiYjeGE7CTxzdHlsZSB0eXBlPSJ0ZXh0L2NzcyI+JiN4YTsJLnN0MHtmaWxsOiM0Mjg1ZjQ7fSYjeGE7CS5zdDF7ZmlsbDojNjY5ZGY2O30mI3hhOwkuc3Qye2ZpbGw6I2FlY2JmYTt9JiN4YTsJPC9zdHlsZT4mI3hhOwk8ZyBjbGFzcz0ic3QwIj4mI3hhOwkJPHBhdGggZD0iTTQgOWg0djJINHptLTIgN2g2djJIMnoiLz4mI3hhOwkJPHBhdGggZD0iTTQgNEgydjEyaDJ6Ii8+JiN4YTsJPC9nPiYjeGE7CTxwYXRoIGNsYXNzPSJzdDEiIGQ9Ik0yMCAxSDd2NGgxM3ptMCA3SDd2NGgxM3ptMCA3SDd2NGgxM3oiLz4mI3hhOwk8cGF0aCBjbGFzcz0ic3QyIiBkPSJNNiAwSDB2Nmg2eiIvPiYjeGE7PC9zdmc+;" vertex="1" parent="1">
          <mxGeometry x="600" y="572" width="40" height="38" as="geometry" />
        </mxCell>
        <mxCell id="v7ca0MWnmdAflECbKoVO-35" value="" style="endArrow=classic;html=1;rounded=0;" edge="1" parent="1">
          <mxGeometry width="50" height="50" relative="1" as="geometry">
            <mxPoint x="560" y="179.6" as="sourcePoint" />
            <mxPoint x="870" y="179.6" as="targetPoint" />
          </mxGeometry>
        </mxCell>
        <mxCell id="v7ca0MWnmdAflECbKoVO-36" value="" style="endArrow=classic;html=1;rounded=0;" edge="1" parent="1">
          <mxGeometry width="50" height="50" relative="1" as="geometry">
            <mxPoint x="560" y="230" as="sourcePoint" />
            <mxPoint x="870" y="230" as="targetPoint" />
          </mxGeometry>
        </mxCell>
        <mxCell id="v7ca0MWnmdAflECbKoVO-37" value="x-correlation-id:[uuid-v4]" style="text;html=1;strokeColor=none;fillColor=none;align=left;verticalAlign=middle;whiteSpace=wrap;rounded=0;fontSize=20;" vertex="1" parent="1">
          <mxGeometry x="560" y="149.6" width="220" height="30" as="geometry" />
        </mxCell>
        <mxCell id="v7ca0MWnmdAflECbKoVO-39" value="3hf83-3f883..." style="text;html=1;strokeColor=none;fillColor=none;align=center;verticalAlign=middle;whiteSpace=wrap;rounded=0;fontSize=20;fontColor=#FF8000;" vertex="1" parent="1">
          <mxGeometry x="440" y="277.5" width="130" height="30" as="geometry" />
        </mxCell>
        <mxCell id="v7ca0MWnmdAflECbKoVO-40" value="3hf83-3f883..." style="text;html=1;strokeColor=none;fillColor=none;align=center;verticalAlign=middle;whiteSpace=wrap;rounded=0;fontSize=20;fontColor=#FF8000;" vertex="1" parent="1">
          <mxGeometry x="780" y="149.6" width="130" height="30" as="geometry" />
        </mxCell>
        <mxCell id="v7ca0MWnmdAflECbKoVO-41" value="928wz-29fnjs..." style="text;html=1;strokeColor=none;fillColor=none;align=center;verticalAlign=middle;whiteSpace=wrap;rounded=0;fontSize=20;fontColor=#00FF00;" vertex="1" parent="1">
          <mxGeometry x="770" y="190" width="140" height="30" as="geometry" />
        </mxCell>
        <mxCell id="v7ca0MWnmdAflECbKoVO-38" value="x-request-id:[uuid-v4]" style="text;html=1;strokeColor=none;fillColor=none;align=left;verticalAlign=middle;whiteSpace=wrap;rounded=0;fontSize=20;" vertex="1" parent="1">
          <mxGeometry x="560" y="190" width="220" height="30" as="geometry" />
        </mxCell>
        <mxCell id="v7ca0MWnmdAflECbKoVO-43" value="" style="endArrow=classic;html=1;rounded=0;entryX=0;entryY=0.5;entryDx=0;entryDy=0;entryPerimeter=0;" edge="1" parent="1" target="v7ca0MWnmdAflECbKoVO-21">
          <mxGeometry width="50" height="50" relative="1" as="geometry">
            <mxPoint x="890" y="325" as="sourcePoint" />
            <mxPoint x="980" y="300" as="targetPoint" />
          </mxGeometry>
        </mxCell>
        <mxCell id="v7ca0MWnmdAflECbKoVO-45" value="x-correlation-id:[uuid-v4]" style="text;html=1;strokeColor=none;fillColor=none;align=left;verticalAlign=middle;whiteSpace=wrap;rounded=0;fontSize=20;" vertex="1" parent="1">
          <mxGeometry x="900" y="290" width="220" height="30" as="geometry" />
        </mxCell>
        <mxCell id="v7ca0MWnmdAflECbKoVO-46" value="3hf83-3f883..." style="text;html=1;strokeColor=none;fillColor=none;align=center;verticalAlign=middle;whiteSpace=wrap;rounded=0;fontSize=20;fontColor=#FF8000;" vertex="1" parent="1">
          <mxGeometry x="1120" y="290" width="130" height="30" as="geometry" />
        </mxCell>
        <mxCell id="v7ca0MWnmdAflECbKoVO-47" value="" style="endArrow=classic;html=1;rounded=0;" edge="1" parent="1">
          <mxGeometry width="50" height="50" relative="1" as="geometry">
            <mxPoint x="1200" y="178.6" as="sourcePoint" />
            <mxPoint x="1510" y="178.6" as="targetPoint" />
          </mxGeometry>
        </mxCell>
        <mxCell id="v7ca0MWnmdAflECbKoVO-48" value="" style="endArrow=classic;html=1;rounded=0;" edge="1" parent="1">
          <mxGeometry width="50" height="50" relative="1" as="geometry">
            <mxPoint x="1200" y="229" as="sourcePoint" />
            <mxPoint x="1510" y="229" as="targetPoint" />
          </mxGeometry>
        </mxCell>
        <mxCell id="v7ca0MWnmdAflECbKoVO-49" value="x-correlation-id:[uuid-v4]" style="text;html=1;strokeColor=none;fillColor=none;align=left;verticalAlign=middle;whiteSpace=wrap;rounded=0;fontSize=20;" vertex="1" parent="1">
          <mxGeometry x="1200" y="148.6" width="220" height="30" as="geometry" />
        </mxCell>
        <mxCell id="v7ca0MWnmdAflECbKoVO-50" value="x-request-id:[uuid-v4]" style="text;html=1;strokeColor=none;fillColor=none;align=left;verticalAlign=middle;whiteSpace=wrap;rounded=0;fontSize=20;" vertex="1" parent="1">
          <mxGeometry x="1200" y="189" width="220" height="30" as="geometry" />
        </mxCell>
        <mxCell id="v7ca0MWnmdAflECbKoVO-51" value="3hf83-3f883..." style="text;html=1;strokeColor=none;fillColor=none;align=center;verticalAlign=middle;whiteSpace=wrap;rounded=0;fontSize=20;fontColor=#FF8000;" vertex="1" parent="1">
          <mxGeometry x="1420" y="148.6" width="130" height="30" as="geometry" />
        </mxCell>
        <mxCell id="v7ca0MWnmdAflECbKoVO-52" value="&lt;font color=&quot;#ff33ff&quot;&gt;928wz-29fnjs...&lt;/font&gt;" style="text;html=1;strokeColor=none;fillColor=none;align=center;verticalAlign=middle;whiteSpace=wrap;rounded=0;fontSize=20;fontColor=#00FF00;" vertex="1" parent="1">
          <mxGeometry x="1400" y="189" width="140" height="30" as="geometry" />
        </mxCell>
      </root>
    </mxGraphModel>
  </diagram>
</mxfile>
